
<svg fill="#000000" height="800px" width="800px" version="1.1" id="Layer_1" xmlns="http://www.w3.org/2000/svg" xmlns:xlink="http://www.w3.org/1999/xlink" 
	 viewBox="0 0 512 512" xml:space="preserve">
<g>
	<g>
		<path d="M123.219,261.064v15.572h-0.001c0,48.304,39.862,87.954,88.166,87.954h89.233c48.305,0,87.041-39.649,87.041-87.954
			v-15.572H123.219z"/>
	</g>
</g>
<g>
	<g>
		<path d="M298.823,376.346c-0.023-0.287-0.021-0.504-0.021-0.504h-85.603c0,0,0,0.217-0.021,0.504L202.843,512h106.315
			L298.823,376.346z"/>
	</g>
</g>
<g>
	<g>
		<path d="M385.407,205.925h-19.915l7.54-157.744c1.957-17.946-12.098-33.552-30.151-33.552H289.57C288.41,6.752,281.39,0,272.879,0
			h-34.884c-8.51,0-15.532,6.752-16.691,14.629h-52.186c-18.052,0-32.107,15.606-30.149,33.552l8.419,157.744h-20.795
			c-9.322,0-16.879,7.557-16.879,16.879c0,7.338,4.691,13.564,11.23,15.89c1.769,0.629,3.664,0.989,5.649,0.989h258.813
			c1.984,0,3.88-0.36,5.649-0.989c6.54-2.326,11.23-8.552,11.23-15.89C402.286,213.483,394.728,205.925,385.407,205.925z"/>
	</g>
</g>
</svg>